<?xml version="1.0" encoding="utf-8"?>
<!-- Generator: Adobe Illustrator 16.0.0, SVG Export Plug-In . SVG Version: 6.00 Build 0)  -->
<!DOCTYPE svg PUBLIC "-//W3C//DTD SVG 1.1//EN" "http://www.w3.org/Graphics/SVG/1.1/DTD/svg11.dtd">
<svg version="1.1" id="Rounded_Rectangle_4_1_" xmlns="http://www.w3.org/2000/svg" xmlns:xlink="http://www.w3.org/1999/xlink"
	 x="0px" y="0px" width="22px" height="31px" viewBox="0 0 22 31" enable-background="new 0 0 22 31" xml:space="preserve">
<g id="Rounded_Rectangle_4">
	<g>
		<path class="icon-fill" fill-rule="evenodd" clip-rule="evenodd" fill="#151515" d="M7.497,6.556c0-2.979,0.469-4.403,3.503-4.403
			s3.502,1.424,3.502,4.403v0.526h2.197V6.556c0-4.169-1.453-6.561-5.699-6.561c-4.246,0-5.7,2.392-5.7,6.561v0.526h2.197V6.556z
			 M21.994,11.942v-0.86c0-0.952-0.761-1.726-1.715-1.785C19.891,9.112,19.46,9,19,9H3C2.54,9,2.109,9.112,1.72,9.297
			c-0.955,0.06-1.715,0.833-1.715,1.785v0.865C0.005,11.965,0,11.982,0,12v16c0,0.019,0.005,0.035,0.005,0.053v1.153
			c0,0.991,0.821,1.798,1.831,1.798h18.328c1.009,0,1.83-0.807,1.83-1.798v-1.147C21.994,28.038,22,28.02,22,28V12
			C22,11.98,21.994,11.962,21.994,11.942z"/>
	</g>
</g>
</svg>
